<svg width="56" height="56" fill="none" xmlns="http://www.w3.org/2000/svg"><g id="Icon"><ellipse id="Background" cx="28" cy="27.659" rx="28" ry="27.5" fill="#FFE2ED"/><path id="Pattern" d="M39 19.09v16.136a.945.945 0 01-.364.745.908.908 0 01-.805.152L17.665 30.15a.916.916 0 01-.48-.336.941.941 0 01-.185-.56v-4.192c0-.202.065-.4.184-.561a.916.916 0 01.48-.335l20.167-5.973a.903.903 0 01.805.153.93.93 0 01.364.744z" stroke="#FF80AD" stroke-width="2" stroke-linecap="round" stroke-linejoin="round"/><path id="Pattern_2" d="M22 32.035v4.198c0 .246.088.481.244.655a.794.794 0 00.59.27h3.333a.794.794 0 00.589-.27.98.98 0 00.244-.655V22.16" stroke="#FF80AD" stroke-width="2" stroke-linecap="round" stroke-linejoin="round"/></g></svg>