<svg width="56" height="56" fill="none" xmlns="http://www.w3.org/2000/svg"><g id="Icon"><ellipse id="Background" cx="28" cy="27.659" rx="28" ry="27.5" fill="#E4F4E6"/><path id="Pattern" d="M28.5 35.159a6.5 6.5 0 100-13 6.5 6.5 0 000 13z" stroke="#2FCF3F" stroke-width="2" stroke-linecap="round" stroke-linejoin="round"/><path id="Pattern_2" d="M35.212 20.014c.328.302.639.613.932.932l3.535.505c.576 1 1.02 2.071 1.321 3.186l-2.15 2.861s.04.88 0 1.32L41 31.68a13.23 13.23 0 01-1.32 3.186l-3.536.505s-.608.634-.932.932l-.505 3.535a13.37 13.37 0 01-3.185 1.32L28.66 39.01a7.46 7.46 0 01-1.32 0l-2.862 2.15a13.24 13.24 0 01-3.185-1.321l-.505-3.535c-.32-.302-.63-.613-.932-.932l-3.535-.505c-.576-1-1.02-2.071-1.321-3.186l2.15-2.861s-.04-.88 0-1.32L15 24.636a13.23 13.23 0 011.32-3.186l3.536-.505c.302-.319.612-.63.932-.932l.505-3.535c1-.576 2.07-1.02 3.185-1.32l2.862 2.149a7.46 7.46 0 011.32 0l2.862-2.15c1.115.3 2.186.744 3.185 1.321l.505 3.535z" stroke="#2FCF3F" stroke-width="2" stroke-linecap="round" stroke-linejoin="round"/></g></svg>