<svg width="56" height="56" fill="none" xmlns="http://www.w3.org/2000/svg"><g id="Icon"><ellipse id="Background" cx="28" cy="27.659" rx="28" ry="27.5" fill="#FFF1DB"/><path id="Pattern" d="M23 39.159h11" stroke="#FFB545" stroke-width="2" stroke-linecap="round" stroke-linejoin="round"/><path id="Pattern_2" d="M28 35.159v-6" stroke="#FFB545" stroke-width="2" stroke-linecap="round" stroke-linejoin="round"/><path id="Pattern_3" d="M24 25.159l4 4 4-4" stroke="#FFB545" stroke-width="2" stroke-linecap="round" stroke-linejoin="round"/><path id="Pattern_4" d="M22.454 31.409a9.016 9.016 0 01-2.538-3.148A9.106 9.106 0 0119 24.308c-.022-4.931 3.904-9.033 8.787-9.147a8.937 8.937 0 015.304 1.592 9.078 9.078 0 013.38 4.424 9.176 9.176 0 01.178 5.585 9.095 9.095 0 01-3.091 4.636 2.745 2.745 0 00-.778.961 2.78 2.78 0 00-.28 1.209v.682a.914.914 0 01-.263.642.896.896 0 01-.637.267h-7.2a.895.895 0 01-.636-.267.913.913 0 01-.264-.642v-.682a2.794 2.794 0 00-1.046-2.159v0z" stroke="#FFB545" stroke-width="2" stroke-linecap="round" stroke-linejoin="round"/></g></svg>