<svg width="56" height="56" fill="none" xmlns="http://www.w3.org/2000/svg"><g id="Icon"><ellipse id="Background" cx="28" cy="27.659" rx="28" ry="27.5" fill="#DFF3F2"/><path id="Pattern" d="M30.727 36.276v-5.299a.87.87 0 00-.266-.624.923.923 0 00-.643-.259h-3.636a.923.923 0 00-.643.26.87.87 0 00-.266.623v5.299a.87.87 0 01-.267.624.923.923 0 01-.642.259h-5.455a.923.923 0 01-.643-.26.87.87 0 01-.266-.623v-10.21a.892.892 0 01.296-.651l9.09-8.025a.924.924 0 011.228 0l9.09 8.024a.915.915 0 01.296.652v10.21a.87.87 0 01-.266.624.923.923 0 01-.643.259h-5.455a.923.923 0 01-.642-.26.87.87 0 01-.267-.623z" stroke="#38CEC5" stroke-width="2" stroke-linecap="round" stroke-linejoin="round"/></g></svg>