<svg width="56" height="56" fill="none" xmlns="http://www.w3.org/2000/svg"><g id="Icon"><ellipse id="Background" cx="28" cy="27.659" rx="28" ry="27.5" fill="#D5F2FC"/><path id="Pattern" d="M19 38.159a2.522 2.522 0 01.203-1c.135-.318.334-.606.585-.848.25-.243.549-.435.877-.566a2.77 2.77 0 011.035-.195H37V18.159H21.7a2.772 2.772 0 00-1.035.195c-.328.13-.627.323-.877.566a2.57 2.57 0 00-.585.847 2.522 2.522 0 00-.203 1V38.16z" stroke="#23C0F7" stroke-width="2" stroke-linecap="round" stroke-linejoin="round"/><path id="Pattern_2" d="M19 38.159v1h16" stroke="#23C0F7" stroke-width="2" stroke-linecap="round" stroke-linejoin="round"/></g></svg>