<svg width="56" height="56" fill="none" xmlns="http://www.w3.org/2000/svg"><g id="Icon"><ellipse id="Background" cx="28" cy="27.659" rx="28" ry="27.5" fill="#F4E6FF"/><path id="Pattern" d="M33 20.159h4.66a.79.79 0 01.489.169c.144.111.256.27.32.456L40 25.159" stroke="#A76FD2" stroke-width="1.5" stroke-linecap="round" stroke-linejoin="round"/><path id="Pattern_2" d="M16 27.159h17" stroke="#A76FD2" stroke-width="1.5" stroke-linecap="round" stroke-linejoin="round"/><path id="Pattern_3" d="M34.5 35.159a2.5 2.5 0 100-5 2.5 2.5 0 000 5z" stroke="#A76FD2" stroke-width="1.5" stroke-linecap="round" stroke-linejoin="round"/><path id="Pattern_4" d="M21.5 35.159a2.5 2.5 0 100-5 2.5 2.5 0 000 5z" stroke="#A76FD2" stroke-width="1.5" stroke-linecap="round" stroke-linejoin="round"/><path id="Pattern_5" d="M32 32.159h-8" stroke="#A76FD2" stroke-width="1.5" stroke-linecap="round" stroke-linejoin="round"/><path id="Pattern_6" d="M18.975 32.159H16.85a.87.87 0 01-.601-.238.795.795 0 01-.249-.575V19.971a.8.8 0 01.249-.575.87.87 0 01.601-.237H33v10.887" stroke="#A76FD2" stroke-width="1.5" stroke-linecap="round" stroke-linejoin="round"/><path id="Pattern_7" d="M33 25.159h7v6.222a.737.737 0 01-.256.55.934.934 0 01-.619.228h-2.188" stroke="#A76FD2" stroke-width="1.5" stroke-linecap="round" stroke-linejoin="round"/></g></svg>