<svg width="56" height="56" fill="none" xmlns="http://www.w3.org/2000/svg"><g id="Icon"><ellipse id="Background" cx="28" cy="27.659" rx="28" ry="27.5" fill="#FFE7DF"/><path id="Pattern" d="M17.857 26.159H23v10h-5.143a.91.91 0 01-.606-.226.731.731 0 01-.251-.544v-8.461c0-.204.09-.4.251-.544a.909.909 0 01.606-.225v0z" stroke="#BC7964" stroke-width="2" stroke-linecap="round" stroke-linejoin="round"/><path id="Pattern_2" d="M23 25.42l4.004-8.261c.85 0 1.665.348 2.265.967.601.62.939 1.46.939 2.337v2.478h6.196a1.575 1.575 0 011.2.559 1.659 1.659 0 01.382 1.3l-1.201 9.913a1.669 1.669 0 01-.527 1.03 1.575 1.575 0 01-1.055.416H23" stroke="#BC7964" stroke-width="2" stroke-linecap="round" stroke-linejoin="round"/></g></svg>