<svg width="58" height="57" fill="none" xmlns="http://www.w3.org/2000/svg"><g id="Icon"><circle id="Ellipse 306" cx="28.97" cy="28.5" r="28.5" fill="#303030"/><path id="Vector" d="M32.642 32.746l-2.775 7.63a.957.957 0 01-1.794 0l-2.774-7.63a.967.967 0 00-.575-.574l-7.63-2.775a.957.957 0 010-1.794l7.63-2.775a.968.968 0 00.575-.574l2.774-7.63a.957.957 0 011.794 0l2.775 7.63a.969.969 0 00.574.574l7.63 2.775a.957.957 0 010 1.794l-7.63 2.775a.967.967 0 00-.574.574v0z" stroke="#fff" stroke-width="2" stroke-linecap="round" stroke-linejoin="round"/></g></svg>