<svg width="64" height="64" fill="none" xmlns="http://www.w3.org/2000/svg"><circle cx="42.385" cy="42.384" r="21.5" fill="#B1E8F2"/><path d="M27.885 40.26c6.834 0 12.375-5.541 12.375-12.376 0-6.834-5.54-12.375-12.375-12.375S15.51 21.05 15.51 27.884 21.05 40.26 27.885 40.26z" stroke="#393939" stroke-width="3" stroke-linecap="round" stroke-linejoin="round"/><path d="M42.245 11.668c.653.602 1.271 1.22 1.856 1.856l7.038 1.006a26.602 26.602 0 012.63 6.342l-4.28 5.698s.077 1.753 0 2.63l4.28 5.697a26.347 26.347 0 01-2.63 6.342l-7.038 1.006s-1.212 1.263-1.856 1.856l-1.006 7.038a26.605 26.605 0 01-6.342 2.63l-5.698-4.28a14.94 14.94 0 01-2.63 0l-5.697 4.28a26.345 26.345 0 01-6.342-2.63l-1.006-7.038a47.227 47.227 0 01-1.856-1.856L4.63 41.239A26.609 26.609 0 012 34.897l4.28-5.698s-.078-1.753 0-2.63L2 20.873a26.348 26.348 0 012.63-6.342l7.038-1.006a47.225 47.225 0 011.856-1.856L14.53 4.63A26.605 26.605 0 0120.872 2l5.698 4.28a14.928 14.928 0 012.63 0L34.896 2a26.35 26.35 0 016.342 2.63l1.006 7.038z" stroke="#393939" stroke-width="3" stroke-linecap="round" stroke-linejoin="round"/></svg>