<svg width="70" height="61" fill="none" xmlns="http://www.w3.org/2000/svg"><circle cx="48.5" cy="38.942" r="21.5" fill="#FAD7C9"/><path d="M25.5 35.442c9.113 0 16.5-7.387 16.5-16.5s-7.387-16.5-16.5-16.5S9 9.83 9 18.942s7.387 16.5 16.5 16.5z" stroke="#303030" stroke-width="3" stroke-miterlimit="10"/><path d="M2 46.442a30.69 30.69 0 0110.535-8.115 30.58 30.58 0 0125.93 0A30.69 30.69 0 0149 46.442m7.5-14c2.485 0 4.5-1.79 4.5-4 0-2.209-2.015-4-4.5-4s-4.5 1.791-4.5 4c0 2.21 2.015 4 4.5 4zm-.5-8v-4m-3 6l-3-2m3 6l-3 2m6 0v4m4-6l3 2m-3-6l3-2" stroke="#303030" stroke-width="3" stroke-linecap="round" stroke-linejoin="round"/></svg>