<svg width="76" height="77" fill="none" xmlns="http://www.w3.org/2000/svg"><circle cx="44.5" cy="49.942" r="21.5" fill="#F5C9E9"/><path d="M10.505 58.937C7.939 56.372 9.64 50.99 8.33 47.84 7.02 44.69 2 41.928 2 38.442c0-3.485 4.963-6.135 6.33-9.397 1.366-3.263-.39-8.533 2.175-11.098 2.565-2.565 7.947-.864 11.098-2.175 3.15-1.31 5.911-6.33 9.397-6.33 3.486 0 6.135 4.964 9.397 6.33 3.263 1.366 8.533-.39 11.098 2.175 2.566 2.565.865 7.947 2.175 11.098 1.31 3.151 6.33 5.912 6.33 9.397 0 3.486-4.964 6.135-6.33 9.397-1.366 3.263.39 8.533-2.175 11.098-2.565 2.566-7.947.865-11.098 2.175-3.15 1.31-5.911 6.33-9.397 6.33-3.486 0-6.135-4.963-9.397-6.33-3.263-1.366-8.533.39-11.098-2.175z" stroke="#303030" stroke-width="3" stroke-linecap="round" stroke-linejoin="round"/><path d="M43 31.442l-16.01 16-7.99-8" stroke="#303030" stroke-width="3" stroke-linecap="round" stroke-linejoin="round"/></svg>