<svg width="23" height="23" fill="none" xmlns="http://www.w3.org/2000/svg"><g id="Instagram" fill="#fff"><path id="Vector" d="M15.766 2.484a4.745 4.745 0 013.275 1.311 4.393 4.393 0 011.363 3.152v8.924a4.393 4.393 0 01-1.363 3.151 4.745 4.745 0 01-3.275 1.311H6.492a4.745 4.745 0 01-3.275-1.31 4.393 4.393 0 01-1.362-3.152V6.947a4.392 4.392 0 011.362-3.152 4.745 4.745 0 013.275-1.311h9.274zm0-1.785H6.492C2.922.7 0 3.511 0 6.947v8.924c0 3.436 2.921 6.247 6.492 6.247h9.274c3.57 0 6.492-2.811 6.492-6.247V6.947c0-3.436-2.921-6.248-6.492-6.248z"/><path id="Vector_2" d="M17.157 6.947a1.43 1.43 0 01-.773-.226 1.351 1.351 0 01-.512-.6 1.292 1.292 0 01-.08-.774c.054-.26.187-.498.381-.685.195-.187.443-.315.713-.367.27-.051.55-.025.803.077.255.1.472.272.625.493a1.303 1.303 0 01-.172 1.69 1.436 1.436 0 01-.985.391zm-6.028.892c.734 0 1.451.21 2.061.602.61.392 1.086.95 1.367 1.602.28.652.354 1.37.21 2.062a3.531 3.531 0 01-1.015 1.828c-.519.5-1.18.84-1.9.977a3.846 3.846 0 01-2.143-.203 3.683 3.683 0 01-1.665-1.315 3.475 3.475 0 01-.625-1.983 3.507 3.507 0 011.088-2.523 3.789 3.789 0 012.622-1.047zm0-1.785a5.72 5.72 0 00-3.091.903 5.405 5.405 0 00-2.05 2.403 5.167 5.167 0 00-.317 3.094 5.296 5.296 0 001.523 2.741 5.636 5.636 0 002.85 1.466c1.079.206 2.198.1 3.214-.305a5.525 5.525 0 002.498-1.972c.611-.88.938-1.916.938-2.975 0-1.42-.587-2.782-1.63-3.786a5.677 5.677 0 00-3.935-1.569z"/></g></svg>