<svg width="23" height="23" fill="none" xmlns="http://www.w3.org/2000/svg"><g id="Linked in"><path id="Vector" d="M20.74.534H2.586C1.596.534.73 1.247.73 2.227V20.42c0 .985.867 1.863 1.858 1.863h18.147c.997 0 1.745-.884 1.745-1.863V2.227c.006-.98-.748-1.693-1.74-1.693zM7.47 18.664H4.355v-9.69h3.116v9.688zM6.021 7.501h-.022c-.998 0-1.643-.742-1.643-1.671 0-.946.662-1.671 1.682-1.671s1.643.72 1.666 1.67c0 .93-.647 1.672-1.683 1.672zm12.838 11.161h-3.116v-5.297c0-1.269-.454-2.136-1.581-2.136-.861 0-1.371.582-1.598 1.15-.085.204-.107.482-.107.765v5.518H9.34V8.975h3.116v1.348c.453-.645 1.161-1.574 2.81-1.574 2.045 0 3.592 1.348 3.592 4.254v5.66z" fill="#fff"/></g></svg>