<svg width="68" height="68" fill="none" xmlns="http://www.w3.org/2000/svg"><g id="Icon"><path id="Pattern+" d="M31.042 7.463c1.006-2.515 4.565-2.515 5.571 0l1.101 2.752a3 3 0 004.64 1.243l2.33-1.833c2.128-1.674 5.21.105 4.825 2.786l-.423 2.934a3 3 0 003.397 3.397l2.934-.423c2.68-.386 4.46 2.696 2.785 4.825l-1.833 2.33a3 3 0 001.244 4.64l2.752 1.1c2.514 1.006 2.514 4.566 0 5.571l-2.752 1.101a3 3 0 00-1.244 4.64l1.833 2.33c1.675 2.129-.105 5.21-2.785 4.825l-2.934-.423a3 3 0 00-3.397 3.397l.422 2.934c.387 2.68-2.696 4.46-4.824 2.786l-2.33-1.833a3 3 0 00-4.64 1.243l-1.101 2.752c-1.006 2.515-4.565 2.515-5.57 0l-1.102-2.752a3 3 0 00-4.64-1.243l-2.33 1.833c-2.128 1.674-5.21-.105-4.824-2.786l.422-2.934a3 3 0 00-3.397-3.397l-2.934.423c-2.68.386-4.46-2.696-2.785-4.825l1.833-2.33a3 3 0 00-1.243-4.64l-2.753-1.1c-2.514-1.006-2.514-4.566 0-5.571l2.753-1.101a3 3 0 001.243-4.64l-1.833-2.33c-1.675-2.129.105-5.21 2.785-4.825l2.934.423a3 3 0 003.397-3.397l-.422-2.934c-.386-2.68 2.696-4.46 4.824-2.786l2.33 1.833a3 3 0 004.64-1.243l1.101-2.752z" fill="#39DD49"/><path id="Pattern+_2" d="M44.328 23.5l-20 20" stroke="#303030" stroke-width="3" stroke-linecap="round" stroke-linejoin="round"/><path id="Pattern+_3" d="M27.328 30.5a4 4 0 100-8 4 4 0 000 8z" stroke="#303030" stroke-width="3" stroke-linecap="round" stroke-linejoin="round"/><path id="Pattern+_4" d="M41.328 44.5a4 4 0 100-8 4 4 0 000 8z" stroke="#303030" stroke-width="3" stroke-linecap="round" stroke-linejoin="round"/></g></svg>