<svg width="22" height="18" fill="none" xmlns="http://www.w3.org/2000/svg"><g id="Twiter"><path id="Vector" d="M21.73 2.86c-.806.35-1.658.58-2.53.684a4.359 4.359 0 001.938-2.396 8.849 8.849 0 01-2.798 1.05A4.434 4.434 0 0015.123.826c-2.434 0-4.404 1.94-4.404 4.332-.002.332.036.664.113.987a12.563 12.563 0 01-9.08-4.528 4.275 4.275 0 00-.6 2.177c0 1.502.785 2.83 1.97 3.607a4.364 4.364 0 01-2.004-.54v.053c0 2.101 1.52 3.849 3.534 4.247-.379.1-.769.152-1.16.152a4.23 4.23 0 01-.828-.08c.56 1.72 2.188 2.972 4.117 3.008a8.932 8.932 0 01-6.523 1.792 12.473 12.473 0 006.743 1.958c8.113 0 12.545-6.602 12.545-12.328a11.5 11.5 0 00-.014-.56 8.877 8.877 0 002.197-2.243z" fill="#fff"/></g></svg>