<svg width="58" height="57" fill="none" xmlns="http://www.w3.org/2000/svg"><g id="Icon"><circle id="Ellipse 306" cx="28.828" cy="28.5" r="28.5" fill="#fff"/><path id="Vector" d="M31.834 34.68l-2.7 7.327a1.125 1.125 0 01-2.11 0l-2.7-7.327a1.138 1.138 0 00-.675-.675l-7.326-2.7a1.125 1.125 0 010-2.11l7.326-2.7a1.139 1.139 0 00.675-.674l2.7-7.327a1.125 1.125 0 012.11 0l2.7 7.327a1.139 1.139 0 00.675.675l7.326 2.7a1.124 1.124 0 010 2.11l-7.326 2.7a1.139 1.139 0 00-.675.674v0z" stroke="#303030" stroke-width="2" stroke-linecap="round" stroke-linejoin="round"/><path id="Vector_2" d="M37.078 12.25V19" stroke="#303030" stroke-width="2" stroke-linecap="round" stroke-linejoin="round"/><path id="Vector_3" d="M40.453 15.625h-6.75" stroke="#303030" stroke-width="2" stroke-linecap="round" stroke-linejoin="round"/><path id="Vector_4" d="M43.828 20.125v4.5" stroke="#303030" stroke-width="2" stroke-linecap="round" stroke-linejoin="round"/><path id="Vector_5" d="M46.078 22.375h-4.5" stroke="#303030" stroke-width="2" stroke-linecap="round" stroke-linejoin="round"/></g></svg>