<svg width="94" height="44" fill="none" xmlns="http://www.w3.org/2000/svg"><path d="M25.667 7H2.333a2.3 2.3 0 00-1.65.704A2.44 2.44 0 000 9.404v8.818c0 13.43 11.054 17.891 13.27 18.642a2.03 2.03 0 001.46 0C16.945 36.114 28 31.652 28 18.222V9.404a2.44 2.44 0 00-.683-1.7A2.3 2.3 0 0025.667 7zm-5.76 13.7l-4.026 1.352 2.494 3.53a1.203 1.203 0 01.207.89 1.209 1.209 0 01-.159.438c-.08.133-.186.249-.31.34a1.088 1.088 0 01-.686.24 1.168 1.168 0 01-.53-.133 1.205 1.205 0 01-.418-.362L14 23.465l-2.48 3.53a1.2 1.2 0 01-.417.362 1.168 1.168 0 01-.53.134 1.088 1.088 0 01-.686-.24 1.209 1.209 0 01-.453-1.244c.036-.154.101-.298.191-.424l2.494-3.53L8.094 20.7a1.177 1.177 0 01-.68-.59 1.235 1.235 0 01-.079-.912c.097-.303.306-.555.582-.701a1.15 1.15 0 01.891-.08l4.025 1.352v-4.356c0-.32.123-.625.342-.85A1.15 1.15 0 0114 14.21c.31 0 .606.126.825.352.219.225.342.53.342.85v4.356l4.025-1.352a1.15 1.15 0 01.891.08c.276.146.485.398.582.701.091.303.063.63-.08.912a1.176 1.176 0 01-.679.59zM40.495 2.2v39.6c0 .584-.236 1.143-.658 1.556a2.273 2.273 0 01-1.59.644 2.273 2.273 0 01-1.589-.644A2.176 2.176 0 0136 41.8V2.2c0-.583.237-1.143.658-1.556A2.273 2.273 0 0138.248 0c.596 0 1.168.232 1.59.644.42.413.657.973.657 1.556zm23.602 14.988l-5.62 1.787V13.2c0-.583-.236-1.143-.658-1.556A2.273 2.273 0 0056.23 11c-.595 0-1.167.232-1.589.644a2.176 2.176 0 00-.658 1.556v5.775l-5.62-1.788a2.237 2.237 0 00-1.708.118 2.16 2.16 0 00-1.101 1.285 2.129 2.129 0 00.118 1.684 2.198 2.198 0 001.315 1.093l5.62 1.788-3.485 4.675a2.18 2.18 0 00-.401 1.643c.047.286.151.56.307.807s.36.46.6.63a2.315 2.315 0 001.677.382 2.284 2.284 0 001.47-.877l3.456-4.675 3.456 4.675c.354.47.882.784 1.47.877a2.315 2.315 0 001.677-.382c.24-.17.444-.383.6-.63a2.173 2.173 0 00.273-1.668 2.177 2.177 0 00-.368-.782l-3.484-4.675 5.62-1.788c.282-.087.544-.228.77-.416a2.18 2.18 0 00.545-.677 2.137 2.137 0 00.118-1.684 2.132 2.132 0 00-.417-.752 2.185 2.185 0 00-.684-.533 2.229 2.229 0 00-1.709-.117zM93.88 18.59a2.132 2.132 0 00-.417-.752 2.185 2.185 0 00-.684-.533 2.229 2.229 0 00-1.709-.117l-5.62 1.787V13.2c0-.583-.236-1.143-.658-1.556a2.273 2.273 0 00-1.59-.644c-.595 0-1.167.232-1.588.644a2.176 2.176 0 00-.659 1.556v5.775l-5.62-1.788a2.237 2.237 0 00-1.708.118 2.16 2.16 0 00-1.101 1.285 2.129 2.129 0 00.118 1.684 2.207 2.207 0 001.315 1.093l5.62 1.788-3.485 4.675a2.18 2.18 0 00-.4 1.643c.046.286.15.56.306.807s.36.46.6.63a2.315 2.315 0 001.677.382 2.284 2.284 0 001.47-.877l3.456-4.675 3.456 4.675c.354.47.882.784 1.47.877a2.315 2.315 0 001.677-.382c.24-.17.444-.383.6-.63a2.171 2.171 0 00.274-1.668 2.177 2.177 0 00-.369-.782l-3.484-4.675 5.62-1.788c.282-.087.544-.228.77-.416a2.18 2.18 0 00.545-.677 2.137 2.137 0 00.118-1.684z" fill="#47CFFF"/></svg>