<svg width="66" height="37" fill="none" xmlns="http://www.w3.org/2000/svg"><path d="M49.5 24.757c0 .686.56 1.253 1.238 1.14a7.5 7.5 0 000-14.794c-.678-.114-1.238.454-1.238 1.14 0 .687.565 1.228 1.23 1.397a5.013 5.013 0 010 9.72c-.665.169-1.23.71-1.23 1.397z" fill="#49E4EB"/><path d="M51.5 31.128c0 1.034.842 1.885 1.867 1.751a14.5 14.5 0 000-28.758c-1.025-.133-1.867.717-1.867 1.751 0 1.034.844 1.856 1.863 2.035a10.755 10.755 0 010 21.186c-1.019.18-1.863 1.001-1.863 2.035zM2.433 11.089L19.8 5.988h.021L39.663.139a3.314 3.314 0 012.983.555A3.375 3.375 0 0144 3.426V33.01a3.43 3.43 0 01-.984 2.407 3.37 3.37 0 01-2.38 1.008c-.328 0-.655-.042-.973-.128L22 31.088v2.497A3.43 3.43 0 0121.009 36a3.37 3.37 0 01-2.394 1h-6.769a3.37 3.37 0 01-2.393-1 3.43 3.43 0 01-.991-2.415v-6.467l-6.03-1.772A3.406 3.406 0 01.678 24.11 3.457 3.457 0 010 22.06v-7.683a3.457 3.457 0 01.677-2.05 3.406 3.406 0 011.756-1.237zm9.413 22.496h6.77v-3.479l-6.77-2.006v5.485zM3.385 22.059l7.277 2.135 7.953 2.348V9.894l-15.23 4.482v7.683z" fill="#49E4EB"/></svg>