<svg width="27" height="20" fill="none" xmlns="http://www.w3.org/2000/svg"><g id="Youtube"><path id="Vector" d="M26.312 5.104c0-2.227-1.681-4.018-3.758-4.018A189.597 189.597 0 0013.938.91h-.914c-2.925 0-5.8.049-8.614.178-2.072 0-3.753 1.8-3.753 4.027a71.711 71.711 0 00-.178 5.284 74.643 74.643 0 00.173 5.29c0 2.226 1.681 4.031 3.753 4.031 2.956.134 5.988.194 9.07.189 3.089.01 6.112-.053 9.072-.189 2.077 0 3.758-1.805 3.758-4.032.122-1.766.178-3.528.172-5.294a70.086 70.086 0 00-.165-5.29zm-15.32 10.148V5.529l7.365 4.859-7.365 4.864z" fill="#fff"/></g></svg>